<svg xmlns="http://www.w3.org/2000/svg" version="1.1" xmlns:xlink="http://www.w3.org/1999/xlink" width="512" height="512" x="0" y="0" viewBox="0 0 512 512" style="enable-background:new 0 0 512 512" xml:space="preserve" fill-rule="evenodd" class=""><g><path d="M256 0c141.39 0 256 114.61 256 256S397.39 512 256 512 0 397.39 0 256 114.61 0 256 0zM141.96 374.81h49.03V216.4h-49.03zm24.28-179.15c16.02 0 29-13.1 29-29.24s-12.98-29.23-29-29.23-28.99 13.09-28.99 29.23 12.97 29.24 28.99 29.24zm103.13 96c0-22.27 10.26-35.55 29.89-35.55 18.02 0 26.69 12.74 26.69 35.55v83.15h48.8v-100.3c0-42.43-24.05-62.95-57.64-62.95-33.6 0-47.74 26.18-47.74 26.18V216.4h-47.03v158.41h47.03v-83.15z" fill="#ffffff" opacity="1" data-original="#000000" class=""></path></g></svg>