<svg xmlns="http://www.w3.org/2000/svg" version="1.1" xmlns:xlink="http://www.w3.org/1999/xlink" width="512" height="512" x="0" y="0" viewBox="0 0 256 256" style="enable-background:new 0 0 512 512" xml:space="preserve" class=""><g><g fill="none" stroke-miterlimit="10" stroke-width="0" transform="matrix(2.81 0 0 2.81 1.407 1.407)"><circle cx="45" cy="45" r="45" fill="#4bae4f" opacity="1" data-original="#4bae4f" class=""></circle><g fill="#fff"><path d="M22.608 69.5a2 2 0 0 1-1.929-2.529l2.949-10.77a24.341 24.341 0 0 1-2.833-11.406C20.8 31.399 31.701 20.5 45.094 20.5c6.498.002 12.603 2.533 17.189 7.126 4.587 4.592 7.111 10.697 7.109 17.189-.005 13.398-10.905 24.298-24.299 24.298a24.357 24.357 0 0 1-10.906-2.583l-11.072 2.904a1.95 1.95 0 0 1-.507.066zm11.821-7.101c.332 0 .662.083.958.244a20.323 20.323 0 0 0 9.699 2.47c11.197 0 20.302-9.106 20.307-20.3a20.175 20.175 0 0 0-5.939-14.36 20.17 20.17 0 0 0-14.36-5.953c-11.188 0-20.293 9.105-20.298 20.298a20.315 20.315 0 0 0 2.709 10.147c.267.463.337 1.013.197 1.528l-2.249 8.213 8.47-2.222c.165-.043.336-.065.506-.065z" fill="#ffffff" opacity="1" data-original="#ffffff"></path><path d="M36.375 45.246c-.285-.38-2.325-3.088-2.325-5.891s1.471-4.181 1.993-4.751 1.139-.712 1.519-.712.76.004 1.092.02c.35.018.819-.133 1.281.978.475 1.14 1.613 3.944 1.756 4.229s.237.617.048.998c-.19.38-.285.617-.569.95-.285.333-.598.743-.855.998-.285.284-.582.592-.25 1.162s1.475 2.435 3.168 3.946c2.175 1.941 4.01 2.542 4.58 2.827.569.285.902.238 1.234-.143.332-.38 1.424-1.663 1.804-2.233s.759-.475 1.281-.285 3.322 1.568 3.891 1.853.949.428 1.092.665c.143.238.143 1.378-.332 2.708s-2.75 2.545-3.844 2.708c-.981.147-2.223.208-3.587-.226a32.609 32.609 0 0 1-3.247-1.2c-5.714-2.468-9.444-8.221-9.73-8.601z" fill="#ffffff" opacity="1" data-original="#ffffff"></path></g></g></g></svg>