<svg xmlns="http://www.w3.org/2000/svg" version="1.1" xmlns:xlink="http://www.w3.org/1999/xlink" width="512" height="512" x="0" y="0" viewBox="0 0 512 512" style="enable-background:new 0 0 512 512" xml:space="preserve" class=""><g transform="matrix(1.02,0,0,1.02,-5.103659973144545,-10.18276031494139)"><path fill-rule="evenodd" d="M344.204 309.488a8.038 8.038 0 0 0-5.361 2.023q-2.208 1.713-2.208 12.94v3.74l.473.465h13.72l.473-.465v-9.195q0-9.515-7.096-9.508zm-59.768-.314a9.462 9.462 0 0 0-7.412 3.739v54.093q3.628 3.896 7.412 3.896h1.42q4.89 0 4.888-7.485v-45.979q-.63-8.264-6.308-8.264zm-86.578-12.626h16.243v66.718q0 5.763 3.627 5.763h1.105q3.784 0 9.461-6.542v-65.94h16.401v86.981h-16.4v-9.352h-.158q-9.778 10.593-18.924 10.596h-.316a9.637 9.637 0 0 1-8.2-4.054q-2.84-2.953-2.839-17.301zm145.874-2.024h1.735q22.71 0 22.709 27.276v20.11h-31.068l-.473.466v14.964q0 13.402 6.466 13.405h1.419a8.7 8.7 0 0 0 4.259-1.244q2.522-1.876 2.522-10.288v-6.706h16.875v3.74q0 10.294-1.892 15.435-5.205 14.18-22.552 14.184a25.92 25.92 0 0 1-9.935-1.873q-13.721-6.234-13.72-24v-40.689a29.639 29.639 0 0 1 1.892-10.288q7.096-14.488 21.763-14.492zm-82.95-28.84h16.242v37.727h.315q7.097-7.957 14.351-7.95 15.928 0 15.929 22.442v47.701a41.181 41.181 0 0 1-.947 8.415q-3.628 10.439-12.774 10.446h-2.208q-7.726 0-14.351-7.171h-.315v6.234h-16.243zm-119.224 0h56.457v16.836h-18.608l-.472.465v100.543H160.64V282.985l-.474-.465h-18.609zm100.457-30.55q-34.538 0-58.665.936-31.226.625-33.748 2.338-14.982 5.147-21.764 16.365-4.729 9.044-5.203 12.626-2.366 25.409-2.366 52.999v8.887q0 23.225 1.42 40.058 0 22.446 12.3 32.888 10.093 8.89 20.5 10.288 38.165 2.184 87.998 2.18h25.39q41.16 0 72.542-1.4 18.452 0 26.021-4.054 14.981-7.64 20.186-22.6 2.522-4.215 3.47-55.652V318.84q0-22.764-1.42-37.878 0-22.446-11.355-32.58-6.781-7.947-21.447-11.224-37.849-2.02-87.84-2.024zm11.158-87.603 2.997.471q4.259 1.713 4.257 6.857v45.049q0 8.726-7.095 8.73h-.16q-6.464 0-6.464-7.014v-48.01q0-5.3 6.465-6.083zm38.322-13.091-.473.465v70.923a41.33 41.33 0 0 0 .946 9.351q2.523 7.957 10.565 7.95 8.99 0 18.768-10.595v8.729l.472.465h15.77l.474-.465v-86.358l-.473-.465h-15.77l-.473.465v65.782q-5.678 6.235-9.305 6.235h-.63q-3.785 0-3.785-7.014v-65.003l-.473-.465zm-38.322-2.03q-9.776 0-15.927 5.148-7.728 4.83-7.728 20.576v37.406a75.004 75.004 0 0 0 .631 10.76q5.047 17.77 23.183 17.767l7.884-.937q16.086-5.137 16.086-22.442V154.08a19.748 19.748 0 0 0-1.42-7.636q-5.99-14.037-21.289-14.034zm-84.212-28.834-.315.315 2.681 9.037q19.081 60.795 19.082 62.972v45.364l.473.464h17.82l.473-.464v-47.545q0-1.404 21.448-69.829h-.158l-.315-.314h-18.452l-11.354 47.072h-1.104q-5.205-21.82-9.305-36.32-2.366-10.755-2.995-10.752zm86.222-92.237c136.855 0 247.8 110.947 247.8 247.803s-110.945 247.795-247.8 247.795-247.8-110.94-247.8-247.795 110.943-247.803 247.8-247.803z" fill="#ffffff" opacity="1" data-original="#000000" class=""></path></g></svg>